<svg xmlns="http://www.w3.org/2000/svg" viewBox="0 0 432.39 69.93">
    <defs>
        <style>.cls-1{fill:#36a9e1;}.cls-2{fill:#2fac66;}.cls-3{fill:#2d2e83;}</style>
    </defs>
    <g id="Layer_2">
        <g id="Layer_1-2">
            <rect class="cls-1" x="47.85" y="57.73" width="11.53" height="10.8"/>
            <rect class="cls-2" x="113.63" y="16.01" width="11.53" height="10.8"/>
            <rect class="cls-1" x="65.78" y="16.03" width="11.53" height="10.8"/>
            <path class="cls-3"
                  d="M39.82,14.63a22.37,22.37,0,0,0-16.88,7.92c.11-1.05.11-4.31.11-5.83V0H11.53V68.53H23.05V32.68C27.48,27.55,32.37,25,37.37,25c5.82,0,10.48,3.49,10.48,11V57.73H59.38V34.31C59.38,22.31,52.16,14.63,39.82,14.63Z"/>
            <path class="cls-3"
                  d="M113.63,47.93c0,8.26-5.47,12-12.34,12S89,56.19,89,47.93V16H77.3V49.44c0,11.06,8.85,20.49,24,20.49s23.87-9.43,23.87-20.49V26.83H113.63Z"/>
            <path class="cls-3"
                  d="M161.24,24.29c4.78,0,9.43,2.33,13.63,5.59l6.28-8a29.74,29.74,0,0,0-20-7.22c-11.53,0-19.68,6.52-19.68,15.25,0,8.38,5.82,12.34,14.9,15.49l3,1c6.75,2.33,9.78,3.73,9.78,7.45,0,3.27-2.79,6.41-9.31,6.41-4.08,0-10-2.45-14.91-6.52l-6.17,8.5a31.86,31.86,0,0,0,21.08,7.68c14.67,0,21.3-8.73,21.3-16.18,0-7.8-4.54-12.92-15-16.65L160,34.89c-4.65-1.63-6.52-2.8-6.52-5.59C153.44,26.27,156.94,24.29,161.24,24.29Z"/>
            <path class="cls-3"
                  d="M220.27,14.63c-15.48,0-26.78,11.53-26.78,27.59S205,69.93,220.62,69.93c11.18,0,20.84-5.47,25.5-15.83L233,53.75c-2.68,4.07-7.33,6-12.34,6-8.27,0-13.86-5.94-14.79-14h41.33v-.11C247.16,24.06,234.36,14.63,220.27,14.63Zm-14.44,22.7c1.4-7.45,6.76-12.57,14.56-12.57a13.64,13.64,0,0,1,13.73,12.57Z"/>
            <path class="cls-3"
                  d="M290.59,14.63a22.29,22.29,0,0,0-17.12,7.92c.12-1.05.12-4.31.12-5.83V16H262.3v52.5h11.52V32.68c4.43-5.13,9.32-7.69,14.32-7.69,5.82,0,10.48,3.49,10.48,11V68.53h11.53V34.31C310.15,22.31,302.93,14.63,290.59,14.63Z"/>
            <path class="cls-3"
                  d="M346.47,24.29c4.77,0,9.43,2.33,13.62,5.59l6.29-8a29.75,29.75,0,0,0-20-7.22c-11.52,0-19.67,6.52-19.67,15.25,0,8.38,5.82,12.34,14.9,15.49l3,1c6.75,2.33,9.78,3.73,9.78,7.45,0,3.27-2.8,6.41-9.32,6.41-4.07,0-10-2.45-14.9-6.52L324,62.25a31.81,31.81,0,0,0,21.07,7.68c14.67,0,21.31-8.73,21.31-16.18,0-7.8-4.54-12.92-15-16.65l-6.17-2.21c-4.66-1.63-6.52-2.8-6.52-5.59C338.67,26.27,342.16,24.29,346.47,24.29Z"/>
            <path class="cls-3"
                  d="M432.39,45.72c0-21.66-12.81-31.09-26.89-31.09-15.49,0-26.78,11.53-26.78,27.59s11.52,27.71,27.12,27.71c11.18,0,20.84-5.47,25.5-15.83l-13.15-.35c-2.68,4.07-7.34,6-12.35,6-8.26,0-13.85-5.94-14.78-14h41.33Zm-41.33-8.39c1.4-7.45,6.75-12.57,14.55-12.57a13.65,13.65,0,0,1,13.74,12.57Z"/>
            <rect class="cls-2" y="16.03" width="11.53" height="10.8"/>
        </g>
    </g>
</svg>